<mxfile host="app.diagrams.net" modified="2023-02-06T14:18:20.139Z" agent="5.0 (Windows NT 10.0; Win64; x64) AppleWebKit/537.36 (KHTML, like Gecko) Chrome/109.0.0.0 Safari/537.36" etag="gsy15EFAwiAfM-y-mxSu" version="20.8.11" type="github">
  <diagram name="Page-1" id="90a13364-a465-7bf4-72fc-28e22215d7a0">
    <mxGraphModel dx="1434" dy="764" grid="1" gridSize="10" guides="1" tooltips="1" connect="1" arrows="1" fold="1" page="1" pageScale="1.5" pageWidth="1169" pageHeight="826" background="none" math="0" shadow="0">
      <root>
        <mxCell id="0" style=";html=1;" />
        <mxCell id="1" style=";html=1;" parent="0" />
        <mxCell id="3a17f1ce550125da-2" value="Resource Request" style="whiteSpace=wrap;html=1;shadow=1;fontSize=18;fillColor=#f5f5f5;strokeColor=#666666;" parent="1" vertex="1">
          <mxGeometry x="760" y="620" width="103" height="60" as="geometry" />
        </mxCell>
        <mxCell id="UvjritmQkkDjjhq6zHSB-3" value="&#xa;&lt;span style=&quot;color: rgb(0, 0, 0); font-family: Helvetica; font-size: 18px; font-style: normal; font-variant-ligatures: normal; font-variant-caps: normal; font-weight: 400; letter-spacing: normal; orphans: 2; text-align: center; text-indent: 0px; text-transform: none; widows: 2; word-spacing: 0px; -webkit-text-stroke-width: 0px; background-color: rgb(251, 251, 251); text-decoration-thickness: initial; text-decoration-style: initial; text-decoration-color: initial; float: none; display: inline !important;&quot;&gt;HANA Cloud&lt;/span&gt;&#xa;&#xa;" style="shape=cylinder3;whiteSpace=wrap;html=1;boundedLbl=1;backgroundOutline=1;size=15;" vertex="1" parent="1">
          <mxGeometry x="646" y="764" width="390" height="120" as="geometry" />
        </mxCell>
        <mxCell id="UvjritmQkkDjjhq6zHSB-4" value="Resource Request" style="whiteSpace=wrap;html=1;shadow=1;fontSize=18;fillColor=#f5f5f5;strokeColor=#666666;" vertex="1" parent="1">
          <mxGeometry x="770" y="630" width="103" height="60" as="geometry" />
        </mxCell>
        <mxCell id="UvjritmQkkDjjhq6zHSB-5" value="Resource Request" style="whiteSpace=wrap;html=1;shadow=1;fontSize=18;fillColor=#f5f5f5;strokeColor=#666666;" vertex="1" parent="1">
          <mxGeometry x="780" y="640" width="103" height="60" as="geometry" />
        </mxCell>
        <mxCell id="UvjritmQkkDjjhq6zHSB-35" style="edgeStyle=orthogonalEdgeStyle;rounded=0;orthogonalLoop=1;jettySize=auto;html=1;exitX=0.5;exitY=1;exitDx=0;exitDy=0;fontSize=14;" edge="1" parent="1" source="UvjritmQkkDjjhq6zHSB-6" target="UvjritmQkkDjjhq6zHSB-3">
          <mxGeometry relative="1" as="geometry" />
        </mxCell>
        <mxCell id="UvjritmQkkDjjhq6zHSB-6" value="Resource Request" style="whiteSpace=wrap;html=1;shadow=1;fontSize=18;fillColor=#f5f5f5;strokeColor=#666666;" vertex="1" parent="1">
          <mxGeometry x="790" y="650" width="103" height="60" as="geometry" />
        </mxCell>
        <mxCell id="UvjritmQkkDjjhq6zHSB-7" value="Resource Request" style="whiteSpace=wrap;html=1;shadow=1;fontSize=18;fillColor=#f5f5f5;strokeColor=#666666;" vertex="1" parent="1">
          <mxGeometry x="920" y="620" width="103" height="60" as="geometry" />
        </mxCell>
        <mxCell id="UvjritmQkkDjjhq6zHSB-8" value="Resource Request" style="whiteSpace=wrap;html=1;shadow=1;fontSize=18;fillColor=#f5f5f5;strokeColor=#666666;" vertex="1" parent="1">
          <mxGeometry x="930" y="630" width="103" height="60" as="geometry" />
        </mxCell>
        <mxCell id="UvjritmQkkDjjhq6zHSB-9" value="Resource Request" style="whiteSpace=wrap;html=1;shadow=1;fontSize=18;fillColor=#f5f5f5;strokeColor=#666666;" vertex="1" parent="1">
          <mxGeometry x="940" y="640" width="103" height="60" as="geometry" />
        </mxCell>
        <mxCell id="UvjritmQkkDjjhq6zHSB-14" style="edgeStyle=orthogonalEdgeStyle;rounded=0;orthogonalLoop=1;jettySize=auto;html=1;exitX=0.5;exitY=1;exitDx=0;exitDy=0;fontSize=14;" edge="1" parent="1" source="UvjritmQkkDjjhq6zHSB-10" target="UvjritmQkkDjjhq6zHSB-3">
          <mxGeometry relative="1" as="geometry">
            <Array as="points">
              <mxPoint x="1002" y="735" />
              <mxPoint x="915" y="735" />
            </Array>
          </mxGeometry>
        </mxCell>
        <mxCell id="UvjritmQkkDjjhq6zHSB-10" value="Assignment" style="whiteSpace=wrap;html=1;shadow=1;fontSize=18;fillColor=#f5f5f5;strokeColor=#666666;" vertex="1" parent="1">
          <mxGeometry x="950" y="650" width="103" height="60" as="geometry" />
        </mxCell>
        <mxCell id="UvjritmQkkDjjhq6zHSB-19" value="Resource Request" style="whiteSpace=wrap;html=1;shadow=1;fontSize=18;fillColor=#f5f5f5;strokeColor=#666666;" vertex="1" parent="1">
          <mxGeometry x="580" y="615" width="103" height="60" as="geometry" />
        </mxCell>
        <mxCell id="UvjritmQkkDjjhq6zHSB-20" value="Resource Request" style="whiteSpace=wrap;html=1;shadow=1;fontSize=18;fillColor=#f5f5f5;strokeColor=#666666;" vertex="1" parent="1">
          <mxGeometry x="590" y="625" width="103" height="60" as="geometry" />
        </mxCell>
        <mxCell id="UvjritmQkkDjjhq6zHSB-21" value="Resource Request" style="whiteSpace=wrap;html=1;shadow=1;fontSize=18;fillColor=#f5f5f5;strokeColor=#666666;" vertex="1" parent="1">
          <mxGeometry x="600" y="635" width="103" height="60" as="geometry" />
        </mxCell>
        <mxCell id="UvjritmQkkDjjhq6zHSB-36" style="edgeStyle=orthogonalEdgeStyle;rounded=0;orthogonalLoop=1;jettySize=auto;html=1;exitX=0.5;exitY=1;exitDx=0;exitDy=0;entryX=0.267;entryY=-0.017;entryDx=0;entryDy=0;entryPerimeter=0;fontSize=14;" edge="1" parent="1" source="UvjritmQkkDjjhq6zHSB-22" target="UvjritmQkkDjjhq6zHSB-3">
          <mxGeometry relative="1" as="geometry" />
        </mxCell>
        <mxCell id="UvjritmQkkDjjhq6zHSB-22" value="...." style="whiteSpace=wrap;html=1;shadow=1;fontSize=18;fillColor=#f5f5f5;strokeColor=#666666;" vertex="1" parent="1">
          <mxGeometry x="610" y="645" width="103" height="60" as="geometry" />
        </mxCell>
        <mxCell id="UvjritmQkkDjjhq6zHSB-26" value="" style="shape=curlyBracket;whiteSpace=wrap;html=1;rounded=1;flipH=1;labelPosition=right;verticalLabelPosition=middle;align=left;verticalAlign=middle;fontSize=14;" vertex="1" parent="1">
          <mxGeometry x="1140" y="565" width="70" height="155" as="geometry" />
        </mxCell>
        <mxCell id="UvjritmQkkDjjhq6zHSB-27" value="Scaling" style="text;strokeColor=none;fillColor=none;html=1;fontSize=14;fontStyle=1;verticalAlign=middle;align=center;" vertex="1" parent="1">
          <mxGeometry x="1210" y="620" width="100" height="40" as="geometry" />
        </mxCell>
        <mxCell id="UvjritmQkkDjjhq6zHSB-29" value="Instance x4" style="text;strokeColor=none;fillColor=none;html=1;fontSize=14;fontStyle=1;verticalAlign=middle;align=center;" vertex="1" parent="1">
          <mxGeometry x="560" y="560" width="100" height="40" as="geometry" />
        </mxCell>
        <mxCell id="UvjritmQkkDjjhq6zHSB-30" value="Instance x4" style="text;strokeColor=none;fillColor=none;html=1;fontSize=14;fontStyle=1;verticalAlign=middle;align=center;" vertex="1" parent="1">
          <mxGeometry x="740" y="560" width="100" height="40" as="geometry" />
        </mxCell>
        <mxCell id="UvjritmQkkDjjhq6zHSB-31" value="Instance x4" style="text;strokeColor=none;fillColor=none;html=1;fontSize=14;fontStyle=1;verticalAlign=middle;align=center;" vertex="1" parent="1">
          <mxGeometry x="910" y="560" width="100" height="40" as="geometry" />
        </mxCell>
        <mxCell id="UvjritmQkkDjjhq6zHSB-37" value="Highlight" style="outlineConnect=0;gradientColor=none;html=1;whiteSpace=wrap;fontSize=12;fontStyle=0;strokeColor=#FF9900;fillColor=none;verticalAlign=top;align=center;fontColor=#FF9900;dashed=0;spacingTop=3;labelPosition=center;verticalLabelPosition=bottom;" vertex="1" parent="1">
          <mxGeometry x="470" y="740" width="770" height="170" as="geometry" />
        </mxCell>
      </root>
    </mxGraphModel>
  </diagram>
</mxfile>
